<svg xmlns="http://www.w3.org/2000/svg" width="96.51461826537252" height="96.5146182653724" fill="none"><rect id="backgroundrect" width="100%" height="100%" x="0" y="0" fill="none" stroke="none" class="" style=""/>

<g class="currentLayer" style=""><title>Layer 1</title><path fill-rule="evenodd" clip-rule="evenodd" d="M47.38011580705643,11.669707501864433 C26.718040440125463,11.669707501864433 9.993395610847472,28.30873821190357 9.993395610847472,48.802997620916365 C9.993395610847472,63.850131204319 19.01075646309853,76.80110083999634 31.991754167699817,82.62756989541053 C33.34878402342319,83.23666197528838 34.67769668733597,82.99575496778488 35.71431339851856,82.21877868437767 C36.77669282792568,81.42235240178108 37.529646656193734,80.05129807295799 37.529646656193734,78.43899550857545 V76.49331313352585 L32.89901132287025,75.86613596668244 C32.8653321137476,75.86170000195504 32.83178939584732,75.85624035305976 32.798451414780615,75.84975701999664 C30.242550907268523,75.3525877424717 28.52057764570236,74.45515795531273 27.25844331233978,73.16156239519118 C26.195654409265515,72.07236244058609 25.548071804676056,70.76750635461806 24.999206476674075,69.66158622527124 C24.93427077762604,69.53089587984084 24.870734113607405,69.40293535885812 24.80805051972866,69.2783871184349 C24.113310197806356,67.8977784040451 23.618120043005945,66.91777142734527 23.14555330831528,66.1694583006382 C22.686157976584433,65.44230131340026 22.326708342442515,65.06592676768304 21.972650111584663,64.83116186518669 C21.069897166752817,64.23333031115533 20.20577123785496,63.22124789719581 20.20577123785496,61.953585669326785 C20.20577123785496,61.25816289129257 20.48622657704353,60.547384850740436 21.094056113114362,60.04407346820831 C21.66680740503311,59.569766470432285 22.355712727198608,59.4213322660923 22.95449971978664,59.4213322660923 C23.71362977586746,59.4213322660923 24.4258750970602,59.65370857219696 25.020533230171203,59.92054891195298 C25.628192152214055,60.193190128660206 26.229879583277707,60.556256780195234 26.79324710365772,60.93160764174461 C28.16443792370319,61.845757603645325 29.51665646383762,62.929156681299204 30.660077556533814,64.26028732757568 C31.85069048936844,65.64635569086076 32.692090629739766,66.52877144355773 33.964427681975366,66.70928108515739 C35.00578746313572,66.85703283338546 36.07093083979607,66.86146879811287 36.90147992798805,66.82359248390198 C36.93788896155834,66.62636266756058 36.98248746847153,66.41753109731674 37.03711808022976,66.20085128178596 C37.135289391927714,65.81185129799843 37.27287254408836,65.37030219359399 37.46788437806606,64.9133978266716 C36.525753715577125,64.69228204641342 35.50384393360615,64.40394433913231 34.47644037993432,64.03951277537345 C32.242249683575636,63.247181229448316 29.757324611701968,62.018077771902085 28.08486354105473,60.14848925333023 C26.2476916877985,58.09497881259918 25.110753928165437,56.26497274851799 24.475728516035076,54.11967196073532 C23.857662138285633,52.031697486352925 23.75662451091766,49.77072038760185 23.75662451091766,46.98356962656975 C23.75662451091766,42.7219724357605 25.6033848725462,39.127237234702115 26.986825779800412,37.22083020889282 C26.532139395241742,35.76938255008697 26.056433362436294,33.88460938302517 25.84562266946793,32.09654024702073 C25.716194867844578,30.99843424015522 25.673848466100694,29.836245604381563 25.848591353554724,28.79560240213871 C26.016816785140037,27.79389332108021 26.446491153197286,26.56635951259136 27.567937159090043,25.823506034779555 C28.65130211393833,25.105869310302733 29.917804166417113,25.13524904592037 30.907536142711635,25.321969038138388 C31.936952941913603,25.516161924781798 33.004689651799204,25.942560503501895 33.98660750561237,26.42846925518036 C35.58556805300712,27.21974299413204 37.17674860072613,28.27990444117546 38.36886293700695,29.175116245970727 C40.424045395212175,28.571483814988134 44.05723699817657,27.795462970137596 47.341215808677674,27.723259113497736 C47.367149140930174,27.722713148608207 47.39308247318268,27.722713148608207 47.41901580543518,27.723259113497736 C50.70572444038391,27.795531215748788 54.17840236582756,28.571415569376946 56.180046142053605,29.17221580749512 C57.371614513444904,28.277618213200572 58.961054798078536,27.21888992399216 60.55834332799912,26.42846925518036 C61.54039767303466,25.942560503501895 62.608100260114675,25.516161924781798 63.63758530492782,25.321969038138388 C64.62714666719437,25.13524904592037 65.89378521089554,25.105869310302733 66.97718428854941,25.823506034779555 C68.09845968041421,26.56635951259136 68.52806580286025,27.79389332108021 68.69629123444558,28.79560240213871 C68.87099999909401,29.836245604381563 68.82868772015571,30.99843424015522 68.69936228694917,32.09654024702073 C68.4884833483696,33.88460938302517 68.01281143836977,35.76938255008697 67.55829566783905,37.22083020889282 C68.94163420667648,39.127237234702115 70.78836044549942,42.7219724357605 70.78836044549942,46.98356962656975 C70.78836044549942,49.77072038760185 70.68735694093705,52.031697486352925 70.06939293160438,54.11967196073532 C69.43436751947402,56.26497274851799 68.29739563703536,58.09497881259918 66.46022378377914,60.14848925333023 C64.7878650815487,62.018077771902085 62.30270115003586,63.247181229448316 60.06868106770516,64.03951277537345 C58.8071609448433,64.48686275672912 57.55417152338028,64.81956011128426 56.446886481809614,65.05398378572464 C56.866255762577055,66.32266969776154 57.01537242302895,67.34976614618301 57.01537242302895,67.93906699881553 V78.48233147168159 C57.01537242302895,80.08917438716888 57.76368554973602,81.45784011960029 58.82217497930527,82.25597254247666 C59.85541353273392,83.03533742227555 61.18142575817108,83.28136285061836 62.53883096475601,82.68353129658699 C75.63857603282929,76.9102938179016 84.76676775765418,63.928272429132456 84.76676775765418,48.802997620916365 C84.76676775765418,28.30873821190357 68.04215705118179,11.669707501864433 47.38011580705643,11.669707501864433 zM38.76823625369549,70.24099146428108 C37.8835683958292,70.36758707304 38.76311783285618,70.24201514844894 38.76311783285618,70.24201514844894 L38.75393879815102,70.2430388326168 L38.72530976425648,70.24713356928825 L38.62812801392079,70.2594177793026 C38.54626740329743,70.26965462098121 38.43065933794022,70.28330374321938 38.286115133438116,70.29797654962539 C37.99747032090664,70.32732216243744 37.5907264782095,70.36212742414475 37.10416939322472,70.38533093194962 C36.14088259126663,70.43105549144745 34.81964755861282,70.43344408783912 33.464938053669925,70.24133269233704 C30.76408386798859,69.85779235744477 29.125984462575914,67.94623278799057 28.062683717417713,66.7055275765419 C28.02825380657196,66.66526266593934 27.994472229032517,66.62602143950463 27.961270739188194,66.58712144112587 C27.619837946400636,66.18959075593949 27.246056733908652,65.81253375411035 26.845045522551537,65.45253815507888 C27.19760234996319,66.10257760167121 27.56077136991501,66.82427494001388 27.953320125484467,67.60432227592469 L27.987477053885456,67.67222665905953 C28.048352139067646,67.79336261892318 28.106975119080545,67.9104038421154 28.163823713202476,68.02369155669213 C28.75923254803658,69.21253010363579 29.154852356109615,70.0021318251133 29.804482329034805,70.66786776227951 C30.437392127218246,71.31654229664802 31.428796120986945,71.94235455126763 33.4281195464325,72.33817909617424 L39.54852244924545,73.16702204408645 C40.43155241244316,73.28679309172631 41.09025905165672,74.04193077955246 41.09025905165672,74.93458337392806 V78.43899550857545 C41.09025905165672,81.17052609648704 39.81222349088669,83.6021172232151 37.847568835926054,85.07485751271248 C35.8571514627409,86.56704780139924 33.16301946976185,87.06251093864441 30.53600703538895,85.88322677726745 C16.335050785140993,79.50942792010308 6.432749092578888,65.32150658159256 6.432749092578888,48.802997620916365 C6.432749092578888,26.31071145307064 24.779455608639715,8.102338790893555 47.38011580705643,8.102338790893555 C69.98067363705636,8.102338790893555 88.32748252153397,26.31071145307064 88.32748252153397,48.802997620916365 C88.32748252153397,65.41295570058823 78.29947241315841,79.63499984469414 63.972330027818685,85.94874256401063 C61.346238909196856,87.10618812980651 58.66213902106285,86.60014692282677 56.68096892819405,85.10625049386024 C54.725049711465836,83.6311216079712 53.45465765914917,81.2049901301384 53.45465765914917,78.48233147168159 V67.93906699881553 C53.45465765914917,67.70020735964775 53.28779713978768,66.32062232942582 52.35419717869758,64.46536538920404 C52.09145157561303,63.94328646359443 52.10066473312378,63.32566368231774 52.378765598726275,62.81177423005104 C52.657207692384716,62.2982260058403 53.16904977631569,61.953585669326785 53.7487962433815,61.88943479480743 C54.91647865085602,61.760450589656834 56.89014172649384,61.38236990365982 58.880524976873396,60.67671028394699 C60.90741962924003,59.95774277005196 62.7265063955307,58.97739456529617 63.808540560960765,57.76774110693932 C65.41470102033615,55.972199076509476 66.21453958349228,54.59500264267921 66.65574745984077,53.10520095038414 C67.11367551093102,51.558072944688796 67.22764568161965,49.75638880925179 67.22764568161965,46.98356962656975 C67.22764568161965,43.091181192302706 65.18164225811958,39.81941834620476 64.2391703675747,38.76570610941887 C63.80478705234528,38.28030919982433 63.66931951413155,37.59624931605339 63.88599932966232,36.98159521886349 C64.36030632743835,35.63524580129147 64.94312384700775,33.54525808137893 65.16321594309808,31.678126404809955 C65.27411506128311,30.73773600540638 65.28025716629028,29.954105774908065 65.18505453867913,29.387462465190886 C65.12124489221573,29.00631072669029 65.03457296600342,28.848731610450745 65.00147384457588,28.79887819147587 C64.94005279450417,28.782226262345315 64.73838701343537,28.744315825328826 64.29649668097497,28.82771196220398 C63.71538530168533,28.937348536581993 62.97526164832115,29.211218174290657 62.135158174562456,29.626970437664987 C60.464505612611774,30.45366364882469 58.72458375530243,31.676181404891015 57.64323204598427,32.549213386049274 C57.15937066264153,32.939953632922176 56.506942619657515,33.0494878388834 55.92241895980835,32.83823354944229 C54.54965849070549,32.342224447307586 50.80126829605102,31.37262492631435 47.38011580705643,31.29066194727421 C43.943608055543905,31.372932031564712 39.980244185638426,32.347752341814044 38.62273661063671,32.83823354944229 C38.03804233675956,33.0494878388834 37.38568253938675,32.939953632922176 36.90171878762722,32.549213386049274 C35.82033295550346,31.676181404891015 34.08041109819412,30.45366364882469 32.40979265904903,29.626970437664987 C31.569655062484742,29.211218174290657 30.82966790034294,28.937348536581993 30.2486588894701,28.82771196220398 C29.806563820176123,28.744315825328826 29.604932161912913,28.782226262345315 29.543715848674772,28.79887819147587 C29.51044611321926,28.848731610450745 29.423910678229333,29.00631072669029 29.35989629493237,29.387462465190886 C29.2647619129324,29.954105774908065 29.270835772328383,30.73773600540638 29.381700767707827,31.678126404809955 C29.60179286379814,33.54525808137893 30.184780997395514,35.63524580129147 30.659053872365952,36.98159521886349 C30.875563073868747,37.59624931605339 30.740197904071806,38.28030919982433 30.305951080064773,38.76570610941887 C29.363274452686312,39.81941834620476 27.317271029186244,43.091181192302706 27.317271029186244,46.98356962656975 C27.317271029186244,49.75638880925179 27.43144593670845,51.558072944688796 27.889408110604286,53.10520095038414 C28.33037712731361,54.59500264267921 29.13028393608093,55.972199076509476 30.73637614984512,57.76774110693932 C31.818512683691978,58.97739456529617 33.637667695593834,59.95774277005196 35.664528225154875,60.67671028394699 C37.654740861506454,61.38236990365982 39.62867691958904,61.760450589656834 40.79612046742439,61.88943479480743 C41.5301020157814,61.97030584406853 42.137829183435436,62.49682073440552 42.32379847393036,63.21237596774102 C42.510108992481236,63.927931201076504 42.23610286355019,64.68477502918245 41.63554148507118,65.11438115162849 C41.0711502805233,65.5177127137661 40.699894155645374,66.24009250822067 40.489219953899386,67.07507756114006 C40.389786098394396,67.46919596576691 40.34095636358738,67.83192138924599 40.31761636456013,68.09466699233054 C40.30604873346329,68.22467488164901 40.301100926651955,68.32636084232331 40.29898531270504,68.3901704887867 L40.297483909258844,68.45500381941795 C40.30744776849269,69.35004501018526 39.652904111561774,70.11473708357812 38.76823625369549,70.24099146428108 z" fill="#ffffff" id="svg_1" class="selected" fill-opacity="1"/></g></svg>